<svg width="604" height="451" viewBox="0 0 604 451" fill="none" xmlns="http://www.w3.org/2000/svg">
<g clip-path="url(#clip0_1_493)">
<path d="M604 396.339H0V396.642H604V396.339Z" fill="#EBEBEB"/>
<path d="M543.479 415.814H503.47V416.117H543.479V415.814Z" fill="#EBEBEB"/>
<path d="M400.114 419.106H389.616V419.409H400.114V419.106Z" fill="#EBEBEB"/>
<path d="M502.262 404.582H479.081V404.885H502.262V404.582Z" fill="#EBEBEB"/>
<path d="M115.545 406.615H63.3717V406.918H115.545V406.615Z" fill="#EBEBEB"/>
<path d="M133.955 406.615H126.308V406.918H133.955V406.615Z" fill="#EBEBEB"/>
<path d="M271.981 411.723H158.816V412.026H271.981V411.723Z" fill="#EBEBEB"/>
<path d="M286.308 342.356H53.0433C49.2381 342.356 46.1456 339.258 46.1456 335.445V6.91128C46.1456 3.09858 49.2381 0 53.0433 0H286.308C290.113 0 293.206 3.09858 293.206 6.91128V335.445C293.206 339.258 290.113 342.356 286.308 342.356ZM53.0433 0.302595C49.4072 0.302595 46.4476 3.26803 46.4476 6.91128V335.445C46.4476 339.088 49.4072 342.054 53.0433 342.054H286.308C289.944 342.054 292.904 339.088 292.904 335.445V6.91128C292.904 3.26803 289.944 0.302595 286.308 0.302595H53.0433Z" fill="#EBEBEB"/>
<path d="M547.598 342.356H314.334C310.528 342.356 307.436 339.258 307.436 335.445V6.91128C307.436 3.09858 310.528 0 314.334 0H547.598C551.404 0 554.496 3.09858 554.496 6.91128V335.445C554.496 339.258 551.404 342.356 547.598 342.356ZM314.334 0.302595C310.698 0.302595 307.738 3.26803 307.738 6.91128V335.445C307.738 339.088 310.698 342.054 314.334 342.054H547.598C551.235 342.054 554.194 339.088 554.194 335.445V6.91128C554.194 3.26803 551.235 0.302595 547.598 0.302595H314.334Z" fill="#EBEBEB"/>
<path d="M197.278 36.1057H111.208V328.667H197.278V36.1057Z" fill="#FAFAFA"/>
<path d="M184.474 36.1057H179.436L149.418 328.667H154.443L184.474 36.1057Z" fill="#F5F5F5"/>
<path d="M195.768 37.2434H110.665V39.8215H195.768V37.2434Z" fill="#E0E0E0"/>
<path d="M195.768 326.113H110.665V331.632H195.768V326.113Z" fill="#EBEBEB"/>
<path d="M194.355 331.378H113.939V331.62H194.355V331.378Z" fill="#EBEBEB"/>
<path d="M113.939 37.2434H194.343V331.378H199.163V33.6244H109.119V331.378H113.939V37.2434Z" fill="#EBEBEB"/>
<path d="M293.061 36.1057H206.991V328.667H293.061V36.1057Z" fill="#FAFAFA"/>
<path d="M269.191 36.1057H241.745L211.726 328.667H239.172L269.191 36.1057Z" fill="#F5F5F5"/>
<path d="M293.955 37.2434H206.435V39.8215H293.955V37.2434Z" fill="#E0E0E0"/>
<path d="M293.955 326.113H206.435V331.632H293.955V326.113Z" fill="#EBEBEB"/>
<path d="M290.125 331.378H209.709V331.62H290.125V331.378Z" fill="#EBEBEB"/>
<path d="M209.709 37.2434H290.125V331.378H294.945V33.6244H204.901V331.378H209.709V37.2434Z" fill="#EBEBEB"/>
<path d="M386.427 36.1057H302.773V328.667H386.427V36.1057Z" fill="#FAFAFA"/>
<path d="M350.175 36.1057H345.138L315.119 328.667H320.144L350.175 36.1057Z" fill="#F5F5F5"/>
<path d="M387.321 37.2434H302.217V39.8215H387.321V37.2434Z" fill="#E0E0E0"/>
<path d="M387.321 326.113H302.217V331.632H387.321V326.113Z" fill="#EBEBEB"/>
<path d="M385.908 331.378H305.491V331.62H385.908V331.378Z" fill="#EBEBEB"/>
<path d="M305.491 37.2434H385.908V331.378H390.716V33.6244H300.671V331.378H305.491V37.2434Z" fill="#EBEBEB"/>
<path d="M484.613 36.1057H398.543V328.667H484.613V36.1057Z" fill="#FAFAFA"/>
<path d="M476.206 36.1057H448.76L418.741 328.667H446.175L476.206 36.1057Z" fill="#F5F5F5"/>
<path d="M483.103 37.2434H398V39.8215H483.103V37.2434Z" fill="#E0E0E0"/>
<path d="M483.103 326.113H398V331.632H483.103V326.113Z" fill="#EBEBEB"/>
<path d="M401.273 37.2434H481.678V331.378H486.498V33.6244H396.454V331.378H401.273V37.2434Z" fill="#EBEBEB"/>
<path d="M481.69 331.378H401.273V331.62H481.69V331.378Z" fill="#EBEBEB"/>
<path d="M170.654 297.681H133.291V362.424H170.654V297.681Z" fill="#EBEBEB"/>
<path d="M163.479 288.64V304.883H160.531H143.414H140.466V288.64H163.479Z" fill="#EBEBEB"/>
<path d="M163.479 304.883H168.262V300.09H163.479V304.883Z" fill="#FAFAFA"/>
<path d="M154.213 304.883H158.997V300.09H154.213V304.883Z" fill="#FAFAFA"/>
<path d="M144.948 304.883H149.732V300.09H144.948V304.883Z" fill="#FAFAFA"/>
<path d="M135.67 304.883H140.454V300.09H135.67V304.883Z" fill="#F0F0F0"/>
<path d="M163.479 313.585H168.262V308.792H163.479V313.585Z" fill="#F0F0F0"/>
<path d="M154.213 313.585H158.997V308.792H154.213V313.585Z" fill="#F0F0F0"/>
<path d="M144.948 313.585H149.732V308.792H144.948V313.585Z" fill="#FAFAFA"/>
<path d="M135.67 313.585H140.454V308.792H135.67V313.585Z" fill="#FAFAFA"/>
<path d="M163.479 322.288H168.262V317.495H163.479V322.288Z" fill="#F0F0F0"/>
<path d="M154.213 322.288H158.997V317.495H154.213V322.288Z" fill="#FAFAFA"/>
<path d="M144.948 322.288H149.732V317.495H144.948V322.288Z" fill="#FAFAFA"/>
<path d="M154.213 297.342H158.997V292.549H154.213V297.342Z" fill="#FAFAFA"/>
<path d="M144.948 297.342H149.732V292.549H144.948V297.342Z" fill="#F0F0F0"/>
<path d="M135.67 322.288H140.454V317.495H135.67V322.288Z" fill="#F0F0F0"/>
<path d="M163.479 331.003H168.262V326.21H163.479V331.003Z" fill="#FAFAFA"/>
<path d="M154.213 331.003H158.997V326.21H154.213V331.003Z" fill="#F0F0F0"/>
<path d="M144.948 331.003H149.732V326.21H144.948V331.003Z" fill="#F0F0F0"/>
<path d="M135.67 331.003H140.454V326.21H135.67V331.003Z" fill="#FAFAFA"/>
<path d="M163.479 339.718H168.262V334.925H163.479V339.718Z" fill="#F0F0F0"/>
<path d="M154.213 339.718H158.997V334.925H154.213V339.718Z" fill="#FAFAFA"/>
<path d="M144.948 339.718H149.732V334.925H144.948V339.718Z" fill="#FAFAFA"/>
<path d="M135.67 339.718H140.454V334.925H135.67V339.718Z" fill="#F0F0F0"/>
<path d="M163.479 348.432H168.262V343.639H163.479V348.432Z" fill="#F0F0F0"/>
<path d="M154.213 348.432H158.997V343.639H154.213V348.432Z" fill="#FAFAFA"/>
<path d="M144.948 348.432H149.732V343.639H144.948V348.432Z" fill="#F0F0F0"/>
<path d="M135.67 348.432H140.454V343.639H135.67V348.432Z" fill="#FAFAFA"/>
<path d="M163.479 357.135H168.262V352.342H163.479V357.135Z" fill="#FAFAFA"/>
<path d="M154.213 357.135H158.997V352.342H154.213V357.135Z" fill="#FAFAFA"/>
<path d="M144.948 357.135H149.732V352.342H144.948V357.135Z" fill="#F0F0F0"/>
<path d="M135.67 357.135H140.454V352.342H135.67V357.135Z" fill="#F0F0F0"/>
<path d="M433.865 321.271H400.392V362.424H433.865V321.271Z" fill="#F0F0F0"/>
<path d="M403.303 325.834H411.094H413.233H415.383V330.131H413.233H411.094H403.303V325.834Z" fill="#E6E6E6"/>
<path d="M403.303 334.15H411.094H413.233H415.383V338.447H413.233H411.094H403.303V334.15Z" fill="#FAFAFA"/>
<path d="M403.303 342.465H411.094H413.233H415.383V346.762H413.233H411.094H403.303V342.465Z" fill="#E6E6E6"/>
<path d="M403.303 350.793H411.094H414.404H415.383V355.077H414.404H411.094H403.303V350.793Z" fill="#FAFAFA"/>
<path d="M418.874 325.834H426.666H428.804H430.954V330.131H428.804H426.666H418.874V325.834Z" fill="#FAFAFA"/>
<path d="M418.874 334.15H426.666H429.686H430.954V338.447H429.686H426.666H418.874V334.15Z" fill="#FAFAFA"/>
<path d="M418.874 342.465H426.666H428.804H430.954V346.762H428.804H426.666H418.874V342.465Z" fill="#E6E6E6"/>
<path d="M418.874 350.793H426.666H428.804H430.954V355.077H428.804H426.666H418.874V350.793Z" fill="#FAFAFA"/>
<path d="M272.573 336.861H242.156V362.436H272.573V336.861Z" fill="#F0F0F0"/>
<path d="M266.726 343.942H270.616V340.044H266.726V343.942Z" fill="#FAFAFA"/>
<path d="M259.176 343.942H263.066V340.044H259.176V343.942Z" fill="#FAFAFA"/>
<path d="M251.651 343.942H255.54V340.044H251.651V343.942Z" fill="#FAFAFA"/>
<path d="M244.101 343.942H247.99V340.044H244.101V343.942Z" fill="#FAFAFA"/>
<path d="M266.726 351.022H270.616V347.125H266.726V351.022Z" fill="#FAFAFA"/>
<path d="M259.176 351.022H263.066V347.125H259.176V351.022Z" fill="#FAFAFA"/>
<path d="M251.651 351.022H255.54V347.125H251.651V351.022Z" fill="#FAFAFA"/>
<path d="M244.101 351.022H247.99V347.125H244.101V351.022Z" fill="#E6E6E6"/>
<path d="M266.726 358.127H270.616V354.23H266.726V358.127Z" fill="#E6E6E6"/>
<path d="M259.176 358.127H263.066V354.23H259.176V358.127Z" fill="#E6E6E6"/>
<path d="M251.651 358.127H255.54V354.23H251.651V358.127Z" fill="#FAFAFA"/>
<path d="M244.101 358.127H247.99V354.23H244.101V358.127Z" fill="#E6E6E6"/>
<path d="M238.036 317.943H207.619V362.424H238.036V317.943Z" fill="#F0F0F0"/>
<path d="M236.092 319.892H224.652V330.882H236.092V319.892Z" fill="#FAFAFA"/>
<path d="M221.004 319.892H209.564V330.882H221.004V319.892Z" fill="#FAFAFA"/>
<path d="M236.092 334.077H224.652V345.068H236.092V334.077Z" fill="#FAFAFA"/>
<path d="M221.004 334.077H209.564V345.068H221.004V334.077Z" fill="#FAFAFA"/>
<path d="M236.092 348.251H224.652V359.241H236.092V348.251Z" fill="#FAFAFA"/>
<path d="M221.004 348.251H209.564V359.241H221.004V348.251Z" fill="#FAFAFA"/>
<path d="M98.9473 366.201C98.9473 366.201 92.8348 352.826 99.817 339.645C106.811 326.464 108.829 323.353 104.371 320.654C99.9137 317.955 97.8722 331.197 97.8722 331.197C97.8722 331.197 94.1153 322.082 97.2198 312.545C100.324 303.007 102.269 287.478 98.0292 285.807C93.7891 284.137 97.2198 305.185 93.5475 312.363C93.5475 312.363 90.4671 304.374 89.9477 296.713C89.4403 289.051 90.2376 276.814 86.8914 273.679C83.5453 270.544 81.4071 272.711 84.6929 289.62C87.9786 306.529 87.9545 320.267 87.9545 320.267C87.9545 320.267 80.6944 298.093 75.8262 297.439C70.9579 296.798 70.9579 303.975 75.1255 310.209C79.2931 316.442 87.3384 327.602 88.6551 333.339C88.6551 333.339 80.6823 316.648 73.5189 321.768C66.3554 326.888 79.7522 336.958 85.7318 340.601C91.7114 344.244 95.8548 367.072 95.8548 367.072L98.9352 366.189L98.9473 366.201Z" fill="#E0E0E0"/>
<path d="M94.1153 371.696C94.1153 371.696 100.071 358.236 92.9315 345.152C85.7922 332.068 83.7265 329.006 88.1478 326.234C92.5691 323.462 94.7676 336.68 94.7676 336.68C94.7676 336.68 98.4158 327.505 95.2025 318.016C91.9892 308.526 89.8631 293.021 94.067 291.29C98.2829 289.559 95.1058 310.656 98.8627 317.773C98.8627 317.773 101.859 309.737 102.269 302.075C102.68 294.413 101.75 282.188 105.048 279.005C108.358 275.822 110.52 277.952 107.44 294.909C104.359 311.867 104.54 325.605 104.54 325.605C104.54 325.605 111.535 303.322 116.391 302.607C121.259 301.893 121.332 309.071 117.236 315.365C113.141 321.659 105.229 332.94 103.985 338.689C103.985 338.689 111.752 321.889 118.976 326.888C126.2 331.899 112.924 342.175 106.993 345.903C101.061 349.631 97.1836 372.531 97.1836 372.531L94.0911 371.696H94.1153Z" fill="#EBEBEB"/>
<path d="M121.585 362.098H72.3834L76.3577 397.38H117.611L121.585 362.098Z" fill="#EBEBEB"/>
<path d="M490.436 359.58C490.617 358.382 494.688 330.18 486.522 320.436C484.71 318.282 482.427 317.156 479.733 317.083C463.232 316.696 460.973 329.974 460.961 330.107L462.906 330.41C462.978 329.938 464.935 318.693 479.685 319.056C481.823 319.105 483.562 319.976 485.012 321.707C492.622 330.773 488.527 358.999 488.491 359.289L490.436 359.58Z" fill="#EBEBEB"/>
<path d="M491.439 358.297L493.408 358.236C493.408 357.982 492.755 332.249 505.403 326.924C517.809 321.719 523.378 332.419 523.608 332.879L525.371 331.995C525.311 331.862 518.764 319.177 504.642 325.108C490.738 330.942 491.402 357.183 491.439 358.297Z" fill="#EBEBEB"/>
<path d="M491.378 360.318C491.378 359.907 491.499 319.214 499.411 307.316C507.01 295.89 519.283 301.264 519.802 301.506L520.612 299.714C520.467 299.654 506.321 293.384 497.768 306.226C489.518 318.621 489.397 358.636 489.397 360.33H491.366L491.378 360.318Z" fill="#EBEBEB"/>
<path d="M477.377 318.064C477.377 318.064 484.577 320.727 482.439 327.009C480.301 333.291 457.518 343.627 457.518 343.627C457.518 343.627 447.975 334.864 456.745 320.618C465.503 306.372 477.184 313.573 477.39 318.064H477.377Z" fill="#E0E0E0"/>
<path d="M499.774 305.161C499.774 305.161 494.664 304.616 495.075 301.494C495.485 298.371 514.958 290.334 526.446 303.333C526.446 303.333 519.09 315.994 508.459 316.164C497.829 316.333 499.786 305.173 499.786 305.173L499.774 305.161Z" fill="#E0E0E0"/>
<path d="M505.029 326.016C505.029 326.016 501.501 323.159 505.306 321.768C509.112 320.376 527.811 320.775 528.005 339.318C528.005 339.318 506.237 342.937 503.543 335.881C500.849 328.812 505.029 326.016 505.029 326.016Z" fill="#E0E0E0"/>
<path d="M473.512 397.38H507.288L510.936 360.318H469.864L473.512 397.38Z" fill="#EBEBEB"/>
<path d="M468.052 364.409H512.736V356.227H468.052V364.409Z" fill="#E0E0E0"/>
<path d="M302 451C431.356 451 536.219 444.866 536.219 437.298C536.219 429.731 431.356 423.597 302 423.597C172.644 423.597 67.7809 429.731 67.7809 437.298C67.7809 444.866 172.644 451 302 451Z" fill="#F5F5F5"/>
<path d="M241.6 68.1082H150.251V137.536H241.6V68.1082Z" fill="#407BFF"/>
<path opacity="0.7" d="M241.6 68.1082H150.251V137.536H241.6V68.1082Z" fill="white"/>
<path d="M238.991 134.921V70.7226H152.86V134.921H238.991Z" fill="#407BFF"/>
<path opacity="0.6" d="M238.991 134.921V70.7226H152.86V134.921H238.991Z" fill="white"/>
<path d="M185.15 90.4155C185.15 94.6518 181.732 98.0772 177.504 98.0772C173.276 98.0772 169.857 94.6518 169.857 90.4155C169.857 86.1792 173.276 82.7538 177.504 82.7538C181.732 82.7538 185.15 86.1792 185.15 90.4155Z" fill="white"/>
<path opacity="0.1" d="M154.576 105.993H162.875V120.627H168.202V126.509H174.616V110.786H183.495V105.17H188.678V117.08H196.868V128.022H202.606V123.374H214.009V112.432L217.114 115.543V123.096H222.538V127.61H227.454V113.376H232.504V106.405H235.922V100.244H237.263V133.202H154.576V105.993Z" fill="black"/>
<path d="M401.273 27.5846H282.346V117.976H401.273V27.5846Z" fill="#407BFF"/>
<path opacity="0.8" d="M401.273 27.5846H282.346V117.976H401.273V27.5846Z" fill="white"/>
<path d="M397.879 114.575V30.9858L285.74 30.9858V114.575H397.879Z" fill="#407BFF"/>
<path opacity="0.6" d="M397.879 114.575V30.9858L285.74 30.9858V114.575H397.879Z" fill="white"/>
<path opacity="0.1" d="M395.837 83.9036V112.529H287.782V97.3267L310.951 74.1116L333.867 97.0604L371.424 59.4297L395.837 83.9036Z" fill="black"/>
<path d="M325.13 59.6039C330.209 57.496 332.621 51.6618 330.517 46.5728C328.413 41.4839 322.59 39.0673 317.511 41.1752C312.432 43.2831 310.021 49.1173 312.124 54.2062C314.228 59.2952 320.051 61.7118 325.13 59.6039Z" fill="white"/>
<path d="M292.541 443.314V447.974C292.541 448.555 293.012 449.015 293.592 449.015H424.914C429.77 449.015 433.08 444.101 431.268 439.598L389.652 336.328L322.403 336.788L324.698 350.187L339.533 436.911C340.016 439.707 337.866 442.273 335.027 442.273H293.592C293.012 442.273 292.541 442.733 292.541 443.314Z" fill="#407BFF"/>
<path opacity="0.6" d="M292.541 443.314V447.974C292.541 448.555 293.012 449.015 293.592 449.015H424.914C429.77 449.015 433.08 444.101 431.268 439.598L405.465 375.581L389.652 336.328L322.403 336.788L324.698 350.187L331.149 387.903L339.533 436.911C340.016 439.707 337.866 442.273 335.027 442.273H293.592C293.012 442.273 292.541 442.733 292.541 443.314Z" fill="white"/>
<path opacity="0.2" d="M335.027 442.273H420.469C422.607 442.273 424.056 440.094 423.235 438.122L386.753 350.187H324.698L339.533 436.911C340.016 439.707 337.866 442.273 335.027 442.273Z" fill="black"/>
<path opacity="0.1" d="M322.403 336.788L324.698 350.187L331.149 387.903L405.465 375.581L389.652 336.328L322.403 336.788Z" fill="black"/>
<path d="M191.625 144.29H502.963C507.36 144.29 510.936 147.86 510.936 152.278V363.465C510.936 367.871 507.372 371.454 502.963 371.454H191.625C187.228 371.454 183.652 367.883 183.652 363.465V152.266C183.652 147.86 187.216 144.277 191.625 144.277V144.29Z" fill="#407BFF"/>
<path opacity="0.7" d="M191.625 144.29H502.963C507.36 144.29 510.936 147.86 510.936 152.278V363.465C510.936 367.871 507.372 371.454 502.963 371.454H191.625C187.228 371.454 183.652 367.883 183.652 363.465V152.266C183.652 147.86 187.216 144.277 191.625 144.277V144.29Z" fill="white"/>
<path opacity="0.2" d="M496.379 371.43H502.975C507.372 371.43 510.936 367.859 510.936 363.453V152.266C510.936 147.848 507.372 144.277 502.975 144.277H496.379C500.776 144.277 504.34 147.848 504.34 152.266V363.453C504.34 367.859 500.776 371.43 496.379 371.43Z" fill="black"/>
<path d="M497.152 152.096H190.84V355.743H497.152V152.096Z" fill="#263238"/>
<path opacity="0.1" d="M497.152 152.096H190.84V355.743H497.152V152.096Z" fill="white"/>
<path d="M497.14 327.928H190.719V355.755H497.14V327.928Z" fill="#407BFF"/>
<path opacity="0.2" d="M456.153 353.746H225.799C219.288 353.746 214.009 348.457 214.009 341.933C214.009 335.409 219.288 330.119 225.799 330.119H456.153C462.664 330.119 467.943 335.409 467.943 341.933C467.943 348.457 462.664 353.746 456.153 353.746Z" fill="white"/>
<path d="M446.175 166.839H238.024V325.048H446.175V166.839Z" fill="#407BFF"/>
<path opacity="0.8" d="M446.175 166.839H238.024V325.048H446.175V166.839Z" fill="white"/>
<path d="M440.243 319.105V172.806H243.98V319.105H440.243Z" fill="#407BFF"/>
<path opacity="0.4" d="M440.243 319.105V172.806H243.98V319.105H440.243Z" fill="white"/>
<path opacity="0.3" d="M249.863 268.644L285.185 233.265L341.079 289.269L396.284 233.954L435.17 272.917V313.961H249.863V268.644Z" fill="black"/>
<g opacity="0.8">
<path opacity="0.2" d="M339.255 216.743C320.072 216.743 303.111 226.341 292.928 241.011L296.334 244.424L303.184 251.287C310.601 239.099 323.998 230.965 339.255 230.965C355.466 230.965 369.588 240.164 376.666 253.623L380.146 250.137L387.055 243.214C377.065 227.31 359.392 216.743 339.255 216.743Z" fill="white"/>
<path opacity="0.3" d="M339.255 221.488C321.388 221.488 305.624 230.602 296.334 244.424L303.184 251.287C310.601 239.099 323.998 230.965 339.255 230.965C355.466 230.965 369.588 240.164 376.666 253.623L380.146 250.137L383.612 246.664C374.552 231.594 358.063 221.488 339.255 221.488Z" fill="white"/>
<path opacity="0.4" d="M339.255 226.22C322.693 226.22 308.112 234.85 299.765 247.85L303.196 251.287C310.613 239.099 324.01 230.965 339.267 230.965C355.478 230.965 369.6 240.164 376.679 253.623L380.158 250.137C372.076 235.879 356.771 226.232 339.267 226.232L339.255 226.22Z" fill="white"/>
</g>
<path d="M497.152 152.096H190.84V164.842H497.152V152.096Z" fill="#407BFF"/>
<path opacity="0.2" d="M493.722 158.705C493.722 160.557 492.224 162.058 490.376 162.058C488.527 162.058 487.029 160.557 487.029 158.705C487.029 156.853 488.527 155.352 490.376 155.352C492.224 155.352 493.722 156.853 493.722 158.705Z" fill="white"/>
<path opacity="0.2" d="M482.898 158.705C482.898 160.557 481.4 162.058 479.552 162.058C477.704 162.058 476.206 160.557 476.206 158.705C476.206 156.853 477.704 155.352 479.552 155.352C481.4 155.352 482.898 156.853 482.898 158.705Z" fill="white"/>
<path opacity="0.2" d="M472.062 158.705C472.062 160.557 470.564 162.058 468.716 162.058C466.868 162.058 465.37 160.557 465.37 158.705C465.37 156.853 466.868 155.352 468.716 155.352C470.564 155.352 472.062 156.853 472.062 158.705Z" fill="white"/>
<path opacity="0.2" d="M459.608 229.972C459.125 230.989 459.33 232.187 460.127 232.986L475.433 248.322L460.127 263.657C459.33 264.456 459.125 265.654 459.608 266.671C460.393 268.317 462.567 268.692 463.86 267.397L481.388 249.835C482.222 249 482.222 247.644 481.388 246.797L463.86 229.234C462.567 227.939 460.393 228.314 459.608 229.96V229.972Z" fill="white"/>
<path opacity="0.2" d="M225.654 266.659C226.138 265.642 225.932 264.444 225.135 263.645L209.83 248.31L225.135 232.974C225.932 232.175 226.138 230.977 225.654 229.96C224.869 228.314 222.695 227.939 221.402 229.234L203.874 246.797C203.041 247.632 203.041 248.987 203.874 249.835L221.402 267.397C222.695 268.692 224.869 268.317 225.654 266.671V266.659Z" fill="white"/>
<path opacity="0.6" d="M354.016 332.141H328.854C327.973 332.141 327.259 332.856 327.259 333.738V349.364C327.259 350.247 327.973 350.962 328.854 350.962H354.016C354.897 350.962 355.611 350.247 355.611 349.364V333.738C355.611 332.856 354.897 332.141 354.016 332.141Z" fill="white"/>
<path opacity="0.2" d="M353.207 348.541V334.561H329.687V348.541H353.207Z" fill="black"/>
<g opacity="0.6">
<path d="M372.402 335.941C371.762 335.518 370.904 335.965 370.904 336.74V346.217C370.904 346.992 371.762 347.452 372.402 347.016L379.469 342.271C380.037 341.884 380.037 341.049 379.469 340.674L372.402 335.929V335.941Z" fill="white"/>
<path d="M382.706 335.953C382.175 335.953 381.74 336.389 381.74 336.922V346.363C381.74 346.895 382.175 347.331 382.706 347.331C383.238 347.331 383.673 346.895 383.673 346.363V336.922C383.673 336.389 383.238 335.953 382.706 335.953Z" fill="white"/>
</g>
<path opacity="0.6" d="M403.17 335.59V334.767C403.17 334.501 402.868 334.343 402.651 334.489L400.198 336.135C400.005 336.268 400.005 336.558 400.198 336.692L402.651 338.338C402.868 338.483 403.17 338.338 403.17 338.059V337.406C405.356 337.841 407.011 339.778 407.011 342.102C407.011 344.741 404.873 346.883 402.24 346.883C399.606 346.883 397.468 344.741 397.468 342.102C397.468 341.606 397.07 341.206 396.574 341.206C396.079 341.206 395.68 341.606 395.68 342.102C395.68 345.733 398.628 348.686 402.252 348.686C405.876 348.686 408.823 345.733 408.823 342.102C408.823 338.798 406.371 336.05 403.194 335.59H403.17Z" fill="white"/>
<path opacity="0.6" d="M423.706 335.59V334.767C423.706 334.501 424.008 334.343 424.225 334.489L426.678 336.135C426.871 336.268 426.871 336.558 426.678 336.692L424.225 338.338C424.008 338.483 423.706 338.338 423.706 338.059V337.406C421.52 337.841 419.865 339.778 419.865 342.102C419.865 344.741 422.003 346.883 424.636 346.883C427.27 346.883 429.408 344.741 429.408 342.102C429.408 341.606 429.806 341.206 430.302 341.206C430.797 341.206 431.196 341.606 431.196 342.102C431.196 345.733 428.248 348.686 424.624 348.686C421 348.686 418.053 345.733 418.053 342.102C418.053 338.798 420.505 336.05 423.682 335.59H423.706Z" fill="white"/>
<path opacity="0.6" d="M457.953 345.721L453.797 341.557L457.953 337.394C458.364 336.982 458.364 336.304 457.953 335.893C457.542 335.481 456.866 335.481 456.455 335.893L452.299 340.056L448.144 335.893C447.733 335.481 447.057 335.481 446.646 335.893C446.235 336.304 446.235 336.982 446.646 337.394L450.801 341.557L446.646 345.721C446.235 346.133 446.235 346.81 446.646 347.222C447.057 347.633 447.733 347.633 448.144 347.222L452.299 343.058L456.455 347.222C456.866 347.633 457.542 347.633 457.953 347.222C458.364 346.81 458.364 346.133 457.953 345.721Z" fill="white"/>
<g opacity="0.6">
<path d="M309.695 347.161C310.335 347.585 311.193 347.137 311.193 346.363V336.885C311.193 336.111 310.335 335.651 309.695 336.086L302.628 340.831C302.06 341.218 302.06 342.054 302.628 342.429L309.695 347.173V347.161Z" fill="white"/>
<path d="M299.391 347.149C299.922 347.149 300.357 346.714 300.357 346.181V336.74C300.357 336.207 299.922 335.772 299.391 335.772C298.859 335.772 298.424 336.207 298.424 336.74V346.181C298.424 346.714 298.859 347.149 299.391 347.149Z" fill="white"/>
</g>
<g opacity="0.6">
<path d="M278.311 339.476C277.804 339.476 277.393 339.064 277.393 338.556V335.965H274.711C274.204 335.965 273.793 335.554 273.793 335.046C273.793 334.537 274.204 334.126 274.711 334.126H278.311C278.818 334.126 279.229 334.537 279.229 335.046V338.568C279.229 339.076 278.818 339.488 278.311 339.488V339.476Z" fill="white"/>
<path d="M278.263 349.001H274.748C274.24 349.001 273.829 348.59 273.829 348.081C273.829 347.573 274.24 347.161 274.748 347.161H277.345V344.474C277.345 343.966 277.755 343.554 278.263 343.554C278.77 343.554 279.181 343.966 279.181 344.474V348.081C279.181 348.59 278.77 349.001 278.263 349.001Z" fill="white"/>
<path d="M264.649 349.001H261.049C260.541 349.001 260.131 348.59 260.131 348.081V344.559C260.131 344.051 260.541 343.639 261.049 343.639C261.556 343.639 261.967 344.051 261.967 344.559V347.161H264.649C265.156 347.161 265.567 347.573 265.567 348.081C265.567 348.59 265.156 349.001 264.649 349.001Z" fill="white"/>
<path d="M261.085 339.572C260.578 339.572 260.167 339.161 260.167 338.652V335.046C260.167 334.537 260.578 334.126 261.085 334.126H264.601C265.108 334.126 265.519 334.537 265.519 335.046C265.519 335.554 265.108 335.965 264.601 335.965H262.003V338.652C262.003 339.161 261.593 339.572 261.085 339.572Z" fill="white"/>
</g>
<g opacity="0.6">
<path d="M243.327 335.832C242.144 334.646 240.561 333.98 238.882 333.98C237.203 333.98 235.62 334.634 234.437 335.832C232.238 338.035 232.021 341.461 233.76 343.918L230.378 347.307C229.967 347.718 229.967 348.396 230.378 348.808C230.583 349.013 230.849 349.122 231.127 349.122C231.404 349.122 231.67 349.013 231.876 348.808L235.258 345.418C236.345 346.193 237.614 346.593 238.882 346.593C240.489 346.593 242.107 345.975 243.327 344.753C245.78 342.296 245.78 338.289 243.327 335.832ZM241.83 343.252C240.199 344.886 237.553 344.886 235.922 343.252C234.292 341.618 234.292 338.967 235.922 337.333C236.708 336.546 237.759 336.111 238.882 336.111C240.005 336.111 241.044 336.546 241.83 337.333C243.46 338.967 243.46 341.618 241.83 343.252Z" fill="white"/>
<path d="M240.706 339.681H239.486V338.459C239.486 338.12 239.22 337.854 238.882 337.854C238.544 337.854 238.278 338.12 238.278 338.459V339.681H237.058C236.72 339.681 236.454 339.948 236.454 340.287C236.454 340.625 236.72 340.892 237.058 340.892H238.278V342.114C238.278 342.453 238.544 342.719 238.882 342.719C239.22 342.719 239.486 342.453 239.486 342.114V340.892H240.706C241.044 340.892 241.31 340.625 241.31 340.287C241.31 339.948 241.044 339.681 240.706 339.681Z" fill="white"/>
</g>
<path opacity="0.1" d="M222.767 152.096C265.12 194.617 373.9 289.233 497.152 282.237V152.096H222.767Z" fill="white"/>
<path opacity="0.1" d="M190.84 230.239V355.743H375.253C368.174 330.398 354.041 295.684 326.619 270.871C277.284 226.244 220.037 226.378 190.84 230.239Z" fill="white"/>
<path d="M169.374 278.351L177.165 274.2C177.165 274.2 177.685 274.502 179.618 275.12C181.55 275.737 189.475 273.909 189.716 273.619C189.958 273.316 191.867 266.477 191.311 265.134C190.755 263.79 176.694 266.804 176.694 266.804L175.571 268.596L165.798 273.631L169.386 278.351H169.374Z" fill="#E4897B"/>
<path d="M166.946 270.617H170.654L172.092 279.283C172.092 279.283 165.846 282.019 165.87 281.547C165.895 281.063 166.946 270.617 166.946 270.617Z" fill="#263238"/>
<path opacity="0.25" d="M166.946 270.617H170.654L172.092 279.283C172.092 279.283 165.846 282.019 165.87 281.547C165.895 281.063 166.946 270.617 166.946 270.617Z" fill="white"/>
<path d="M117.442 248.189C110.46 250.646 108.14 278.569 113.165 284.633C118.191 290.697 138.074 281.026 138.074 281.026L117.442 248.177V248.189Z" fill="#263238"/>
<path opacity="0.3" d="M138.074 281.038C138.074 281.038 136.999 281.559 135.296 282.273C131.612 283.846 124.968 286.352 119.713 286.618C116.91 286.763 114.506 286.267 113.165 284.645C108.128 278.581 110.46 250.646 117.442 248.201L138.074 281.038Z" fill="white"/>
<path opacity="0.2" d="M135.296 282.273C131.612 283.846 124.968 286.352 119.713 286.618C118.891 285.541 118.324 284.209 118.106 282.612C116.355 269.806 121.597 256.867 121.597 256.867C121.597 256.867 132.578 272.88 135.296 282.273Z" fill="black"/>
<path d="M178.639 251.929L173.227 257.859L157.487 242.657C157.487 242.657 154.938 242.197 153.428 240.043C153.162 239.667 152.909 239.086 152.691 238.397C151.628 235.201 151.085 229.524 151.676 229.21C152.148 228.968 155.494 229.258 157.946 229.779C159.299 230.045 160.374 230.396 160.567 230.759C161.111 231.776 162.621 240.297 162.621 240.297L178.639 251.929Z" fill="#E4897B"/>
<path opacity="0.2" d="M157.946 229.779C157.451 231.812 156.062 236.145 152.691 238.397C151.628 235.201 151.085 229.524 151.676 229.21C152.148 228.968 155.494 229.258 157.946 229.779Z" fill="black"/>
<path d="M171.802 437.892L180.004 436.766L181.14 417.23L172.949 418.368L171.802 437.892Z" fill="#EBB376"/>
<path opacity="0.2" d="M172.949 418.368L181.14 417.242L180.487 428.414L172.309 429.128L172.949 418.368Z" fill="black"/>
<path d="M172.128 323.051L170.123 310.487L124.134 307.727C124.134 307.727 119.242 333.871 122.999 340.831C129.703 353.262 165.846 346.992 176.428 348.214C170.111 374.117 170.727 424.747 170.727 424.747L185.827 425.897C185.827 425.897 197.448 371.345 199.803 345.431C201.386 327.941 186.926 328.376 172.116 323.051H172.128Z" fill="#263238"/>
<path d="M168.963 425.461L187.119 426.659L188.678 418.864L168.733 417.932L168.963 425.461Z" fill="#407BFF"/>
<path opacity="0.2" d="M168.963 425.461L187.119 426.659L188.678 418.864L168.733 417.932L168.963 425.461Z" fill="white"/>
<path d="M180.62 435.773L171.355 435.192C171.029 435.156 170.739 435.386 170.702 435.713L169.796 443.036C169.748 443.835 170.352 444.524 171.149 444.585C174.387 444.73 175.933 444.645 180.016 444.863C182.517 445.009 187.457 445.541 190.9 445.214C194.355 444.875 193.932 441.462 192.434 441.305C188.895 440.905 184.208 438.291 181.997 436.318C181.611 435.979 181.115 435.785 180.608 435.749L180.62 435.773Z" fill="#263238"/>
<path d="M190.719 437.819L198.982 438.424L204.152 419.554L195.901 418.961L190.719 437.819Z" fill="#EBB376"/>
<path d="M200.129 438.799C200.129 438.799 200.129 438.848 200.154 438.86C200.178 438.86 200.202 438.872 200.226 438.86C200.866 439.223 201.543 439.513 202.243 439.731C202.751 439.937 203.331 439.949 203.85 439.756C204.2 439.562 204.394 439.175 204.369 438.775C204.394 438.521 204.285 438.279 204.092 438.122C203.62 437.771 202.642 437.88 201.772 438.061C202.4 437.541 202.956 436.899 202.992 436.379C203.016 436.04 202.811 435.725 202.497 435.628C202.219 435.507 201.941 435.519 201.664 435.664C200.661 436.221 200.274 438.533 200.238 438.654C200.238 438.654 200.105 438.666 200.105 438.678C200.105 438.715 200.105 438.739 200.141 438.763L200.129 438.799ZM200.745 438.339C200.673 438.364 200.613 438.376 200.564 438.4C200.758 437.637 201.18 436.391 201.772 436.064C201.905 435.979 202.062 435.967 202.219 436.003L202.304 436.04C202.557 436.149 202.594 436.294 202.582 436.403C202.509 436.96 201.567 437.892 200.745 438.339ZM200.782 438.763C201.869 438.436 203.379 438.134 203.85 438.485C203.947 438.557 203.995 438.678 203.983 438.799C203.983 439.054 203.874 439.284 203.669 439.429C203.186 439.695 202.135 439.441 200.782 438.763Z" fill="#407BFF"/>
<path opacity="0.2" d="M195.901 418.961L204.152 419.566L201.192 430.351L193.038 429.346L195.901 418.961Z" fill="black"/>
<path d="M206.955 429.019L192.41 424.735C192.41 424.735 201.096 375.654 209.89 358.624C209.226 358.406 208.356 358.127 207.281 357.813C205.336 357.22 202.751 356.493 199.719 355.646C178.591 349.776 135.767 338.773 135.767 338.773L155.325 320.485C155.325 320.485 233.253 332.395 234.859 352.959C235.632 362.848 206.942 429.019 206.942 429.019H206.955Z" fill="#263238"/>
<path d="M190.538 425.062L208.042 430.024L211.183 422.726L191.867 417.666L190.538 425.062Z" fill="#407BFF"/>
<path opacity="0.2" d="M190.538 425.062L208.042 430.024L211.183 422.726L191.867 417.666L190.538 425.062Z" fill="white"/>
<path d="M199.791 437.589L190.852 435.083C190.55 434.987 190.212 435.156 190.115 435.459L187.699 442.43C187.482 443.205 187.929 444.004 188.702 444.234C191.83 445.057 193.377 445.287 197.315 446.364C199.731 447.03 204.442 448.579 207.897 448.979C211.34 449.366 211.642 445.941 210.216 445.481C206.846 444.343 202.799 440.821 201.047 438.424C200.733 438.013 200.298 437.71 199.803 437.577L199.791 437.589Z" fill="#263238"/>
<path d="M180.826 436.79C180.826 436.79 180.995 436.802 180.995 436.814C180.995 436.851 181.176 436.875 181.2 436.887C181.212 436.899 181.212 436.935 181.236 436.947C181.26 436.947 181.285 436.947 181.309 436.947C182.009 437.165 182.734 437.311 183.459 437.371C184.003 437.468 184.57 437.359 185.029 437.056C185.331 436.79 185.44 436.379 185.331 435.991C185.307 435.737 185.138 435.519 184.921 435.41C184.389 435.168 183.435 435.471 182.625 435.834C183.133 435.204 183.507 434.454 183.435 433.934C183.386 433.595 183.072 433.34 182.734 433.304C182.432 433.244 182.046 433.328 181.816 433.522C180.958 434.272 180.813 436.609 180.813 436.754L180.826 436.79ZM181.719 436.33C181.659 436.366 181.599 436.391 181.55 436.427C181.587 435.64 181.731 434.333 182.251 433.897C182.36 433.788 182.517 433.74 182.674 433.752H182.77C183.048 433.813 183.109 433.958 183.121 434.067C183.169 434.623 182.432 435.737 181.732 436.342L181.719 436.33ZM181.84 436.742C182.843 436.197 184.256 435.58 184.776 435.834C184.884 435.882 184.969 435.991 184.981 436.112C185.041 436.354 184.981 436.609 184.8 436.79C184.389 437.141 183.302 437.129 181.84 436.742Z" fill="#407BFF"/>
<path d="M158.864 219.466C159.202 221.584 159.843 223.63 160.749 225.567C159.734 226.014 158.562 225.978 157.572 225.482L158.876 219.454L158.864 219.466Z" fill="#DE5753"/>
<path d="M158.381 218.655C158.308 219.297 158.671 219.841 159.106 219.866C159.541 219.878 159.891 219.369 159.927 218.716C159.963 218.062 159.625 217.518 159.202 217.505C158.78 217.493 158.417 218.002 158.381 218.655Z" fill="#263238"/>
<path d="M157.318 216.21C157.451 216.271 157.596 216.259 157.716 216.174C158.49 215.581 159.492 215.399 160.434 215.666C160.628 215.738 160.845 215.641 160.93 215.448C161.002 215.254 160.906 215.036 160.712 214.952C159.541 214.576 158.26 214.806 157.282 215.545C157.112 215.666 157.064 215.896 157.185 216.077C157.221 216.126 157.27 216.162 157.33 216.198L157.318 216.21Z" fill="#263238"/>
<path d="M156.883 229.488C156.69 229.924 156.484 230.347 156.255 230.747C154.902 233.168 152.884 235.007 150.577 236.145C149.973 236.448 149.345 236.702 148.705 236.908C145.322 237.985 141.578 237.658 138.485 235.637C137.217 234.826 136.045 233.712 135.066 232.296C131.177 226.753 132.228 221.294 133.267 211.925C133.46 209.904 134.112 207.955 135.199 206.249C138.98 200.221 146.929 198.418 152.933 202.206C161.389 207.459 160.302 221.475 156.883 229.488Z" fill="#E4897B"/>
<path opacity="0.2" d="M150.577 236.145C149.973 236.448 149.345 236.702 148.705 236.908C145.322 237.985 141.578 237.658 138.485 235.637C139.439 233.954 140.672 232.768 140.672 232.768C140.672 232.768 146.349 232.853 150.577 236.145Z" fill="black"/>
<path d="M130.053 248.322C134.68 252.534 148.282 250.851 148.282 250.851C148.282 250.851 155.361 248.915 153.875 246.7C149.707 246.01 147.69 244.061 146.857 241.568C146.373 240.115 146.301 238.481 146.434 236.799C146.494 235.915 146.627 235.02 146.784 234.136L132.771 223.739C134.607 230.602 134.583 243.347 130.053 248.322Z" fill="#E4897B"/>
<path d="M155.578 208.96C155.578 208.96 158.2 217.82 149.14 224.187C149.14 224.187 145.322 232.369 143.208 233.374C141.082 234.378 136.287 233.773 134.656 233.374C133.025 232.974 124.678 226.014 127.094 209.674C129.51 193.334 143.208 198.502 143.208 198.502C143.208 198.502 147.883 194.448 156.593 199.483C163.853 203.695 162.428 211.587 155.59 208.96H155.578Z" fill="#2E353A"/>
<path d="M147.908 219.95C148.125 222.068 148.983 223.739 150.299 224.598C152.051 225.724 153.742 223.267 153.935 220.434C154.092 217.917 153.404 214.225 151.314 214.334C149.212 214.455 147.678 217.348 147.92 219.95H147.908Z" fill="#E4897B"/>
<path d="M117.442 248.189C119.822 254.482 121.537 260.898 122.588 267.385C122.926 269.37 123.204 271.331 123.433 273.219C123.735 275.628 123.941 277.94 124.098 280.13C124.303 282.914 124.364 286.194 124.352 289.438C124.327 296.87 120.872 311.951 120.872 311.951C129.111 313.44 155.615 313.368 172.068 310.886C172.406 294.11 168.576 263.863 167.417 259.07C166.402 254.858 165.339 251.65 164.518 249.774C163.539 247.559 160.869 245.974 157.68 245.683C156.11 245.538 154.286 245.405 152.365 245.32C151.628 245.32 150.879 245.272 150.13 245.259C143.982 245.308 137.857 245.61 131.769 246.179C130.621 246.276 129.437 246.397 128.314 246.53C122.515 247.172 117.43 248.189 117.43 248.189H117.442Z" fill="#263238"/>
<path opacity="0.3" d="M172.068 310.886C155.615 313.368 129.111 313.44 120.872 311.951C120.872 311.951 124.339 296.882 124.352 289.45C124.364 286.207 124.303 282.926 124.098 280.143C123.929 277.94 123.723 275.628 123.433 273.219C123.204 271.331 122.926 269.382 122.588 267.397C121.537 260.91 119.822 254.495 117.442 248.201C117.442 248.201 122.527 247.184 128.314 246.542C129.449 246.409 130.621 246.276 131.781 246.191C137.869 245.623 143.994 245.32 150.142 245.259C150.891 245.272 151.628 245.32 152.377 245.32C154.286 245.405 156.11 245.55 157.68 245.683C160.869 245.974 163.539 247.571 164.518 249.774C165.339 251.65 166.414 254.858 167.417 259.07C167.429 259.106 167.441 259.142 167.441 259.191C167.936 261.321 168.878 267.7 169.784 275.616C171.053 286.836 172.261 301.131 172.068 310.886Z" fill="white"/>
<path opacity="0.2" d="M169.784 275.616C159.299 271.973 158.997 255.838 158.997 255.838L167.441 259.191C167.936 261.321 168.878 267.7 169.784 275.616Z" fill="black"/>
<path d="M159.553 246.022C166.849 247.45 172.092 252.885 172.092 252.885L176.416 248.322C176.416 248.322 191.577 259.723 190.852 266.841C190.127 273.958 183.109 273.764 167.658 266.841C167.658 266.841 162.379 263.306 159.444 256.903C156.508 250.5 159.565 246.034 159.565 246.034L159.553 246.022Z" fill="#263238"/>
<path opacity="0.3" d="M190.84 266.841C190.103 273.958 183.097 273.764 167.646 266.841C167.646 266.841 162.367 263.294 159.432 256.891C156.496 250.488 159.553 246.022 159.553 246.022C166.619 247.414 171.766 252.546 172.08 252.873H172.092L173.747 251.13L176.404 248.322C176.404 248.322 191.565 259.723 190.84 266.841Z" fill="white"/>
<path opacity="0.2" d="M183.254 262.604C182.831 262.047 172.092 252.885 172.092 252.885L173.747 251.13C179.243 255.499 183.012 262.084 183.254 262.604Z" fill="black"/>
<path d="M113.878 344.269H180.995C184.329 344.269 187.035 346.98 187.035 350.321V356.324H107.838V350.321C107.838 346.98 110.544 344.269 113.878 344.269Z" fill="#407BFF"/>
<path opacity="0.3" d="M113.878 344.269H180.995C184.329 344.269 187.035 346.98 187.035 350.321V356.324H107.838V350.321C107.838 346.98 110.544 344.269 113.878 344.269Z" fill="black"/>
<path d="M102.293 298.08H125.415C135.142 298.08 143.027 290.179 143.027 280.433V274.539C143.027 264.792 135.142 256.891 125.415 256.891H102.293C92.5662 256.891 84.6808 264.792 84.6808 274.539V280.433C84.6808 290.179 92.5662 298.08 102.293 298.08Z" fill="#407BFF"/>
<g opacity="0.3">
<path d="M102.293 298.08H125.415C135.142 298.08 143.027 290.179 143.027 280.433V274.539C143.027 264.792 135.142 256.891 125.415 256.891H102.293C92.5662 256.891 84.6808 264.792 84.6808 274.539V280.433C84.6808 290.179 92.5662 298.08 102.293 298.08Z" fill="black"/>
</g>
<path d="M110.858 424.977L140.527 422.06V380.29H152.28V422.048L182.07 424.977C185.029 425.267 187.276 427.761 187.276 430.738V435.205H105.64V430.738C105.64 427.761 107.899 425.267 110.846 424.977H110.858Z" fill="#263238"/>
<path opacity="0.2" d="M110.858 424.977L140.527 422.06V380.29H152.28V422.048L182.07 424.977C185.029 425.267 187.276 427.761 187.276 430.738V435.205H105.64V430.738C105.64 427.761 107.899 425.267 110.846 424.977H110.858Z" fill="white"/>
<path d="M184.135 448.434C188.379 448.434 191.818 444.988 191.818 440.736C191.818 436.485 188.379 433.038 184.135 433.038C179.892 433.038 176.453 436.485 176.453 440.736C176.453 444.988 179.892 448.434 184.135 448.434Z" fill="#263238"/>
<path d="M108.78 448.434C113.024 448.434 116.463 444.988 116.463 440.736C116.463 436.485 113.024 433.038 108.78 433.038C104.537 433.038 101.098 436.485 101.098 440.736C101.098 444.988 104.537 448.434 108.78 448.434Z" fill="#263238"/>
<path d="M149.321 389.259H143.498C140.744 389.259 138.509 387.019 138.509 384.26V352.051H154.322V384.26C154.322 387.019 152.087 389.259 149.333 389.259H149.321Z" fill="#263238"/>
<path opacity="0.3" d="M149.321 389.259H143.498C140.744 389.259 138.509 387.019 138.509 384.26V352.051H154.322V384.26C154.322 387.019 152.087 389.259 149.333 389.259H149.321Z" fill="white"/>
<path d="M118.287 286.751C118.287 286.751 116.053 342.453 131.527 352.051H113.854C113.854 352.051 100.167 333.073 104.033 286.751H118.287Z" fill="#263238"/>
<path opacity="0.3" d="M118.287 286.751C118.287 286.751 116.053 342.453 131.527 352.051H113.854C113.854 352.051 100.167 333.073 104.033 286.751H118.287Z" fill="white"/>
<path d="M187.916 350.296H106.968C105.627 350.296 104.54 351.386 104.54 352.729V353.891C104.54 355.235 105.627 356.324 106.968 356.324H187.916C189.257 356.324 190.345 355.235 190.345 353.891V352.729C190.345 351.386 189.257 350.296 187.916 350.296Z" fill="#263238"/>
<path opacity="0.6" d="M187.916 350.296H106.968C105.627 350.296 104.54 351.386 104.54 352.729V353.891C104.54 355.235 105.627 356.324 106.968 356.324H187.916C189.257 356.324 190.345 355.235 190.345 353.891V352.729C190.345 351.386 189.257 350.296 187.916 350.296Z" fill="white"/>
<path d="M118.529 269.407H102.523C97.8395 269.407 94.0428 273.211 94.0428 277.903V284.173C94.0428 288.866 97.8395 292.67 102.523 292.67H118.529C123.212 292.67 127.009 288.866 127.009 284.173V277.903C127.009 273.211 123.212 269.407 118.529 269.407Z" fill="#263238"/>
<path opacity="0.2" d="M118.529 269.407H102.523C97.8395 269.407 94.0428 273.211 94.0428 277.903V284.173C94.0428 288.866 97.8395 292.67 102.523 292.67H118.529C123.212 292.67 127.009 288.866 127.009 284.173V277.903C127.009 273.211 123.212 269.407 118.529 269.407Z" fill="white"/>
</g>
<defs>
<clipPath id="clip0_1_493">
<rect width="604" height="451" fill="white"/>
</clipPath>
</defs>
</svg>
